<svg version="1.1" xmlns="http://www.w3.org/2000/svg" viewBox="0 0 1220 100" width="1220" height="100">
  <!-- svg-source:excalidraw -->
  
  <defs>
    <style>
      @font-face {
        font-family: "Virgil";
        src: url("https://excalidraw.com/Virgil.woff2");
      }
      @font-face {
        font-family: "Cascadia";
        src: url("https://excalidraw.com/Cascadia.woff2");
      }
    </style>
  </defs>
  <rect x="0" y="0" width="1220" height="100" fill="transparent"></rect><g stroke-linecap="round" transform="translate(10 10) rotate(0 80 40)"><path d="M0.3 1.91 L158.44 -1.02 L161.11 81.11 L1.93 78.59" stroke="none" stroke-width="0" fill="#ced4da"></path><path d="M0.39 -1.42 C54.91 -0.93, 110.93 -2.49, 159.86 -0.42 M0.77 -0.71 C53.68 -1.04, 109.04 -0.06, 159.19 -0.68 M161.97 -1.36 C160.18 23.12, 160.23 42.72, 161.87 78.95 M159.32 0.26 C160.51 20.03, 159.73 39.35, 160.94 80.04 M159.2 81.23 C100.9 77.1, 40.71 79.04, 0.78 81.91 M159.53 79.3 C117.84 81.58, 75.59 80.77, 0.04 79.11 M-0.88 80.8 C0.24 50.84, -2.62 23.88, -1.34 -1.35 M-0.87 80.37 C-0.41 53.96, 0.78 26.25, 0.26 -0.21" stroke="#c92a2a" stroke-width="1" fill="none"></path></g><g transform="translate(34.5 16) rotate(0 50 30)"><text x="50" y="14" font-family="Virgil, Segoe UI Emoji" font-size="16px" fill="#364fc7" text-anchor="middle" style="white-space: pre;" direction="ltr">CDN</text><text x="50" y="34" font-family="Virgil, Segoe UI Emoji" font-size="16px" fill="#364fc7" text-anchor="middle" style="white-space: pre;" direction="ltr">(E.g. Fastly </text><text x="50" y="54" font-family="Virgil, Segoe UI Emoji" font-size="16px" fill="#364fc7" text-anchor="middle" style="white-space: pre;" direction="ltr">or Akamai)</text></g><g stroke-linecap="round" transform="translate(230 10) rotate(0 70 40)"><path d="M1.86 0.69 L138.43 0.57 L141.73 78.39 L1.21 79.77" stroke="none" stroke-width="0" fill="#ced4da"></path><path d="M-0.01 -1.34 C47.81 1.96, 98.71 0.13, 138.27 0.74 M-0.37 0.26 C38.15 -1.16, 77.66 -2.09, 139.49 0.55 M138.58 -1.88 C140.12 29.73, 140.48 57.85, 140.83 79.7 M139.14 0.26 C140.31 17.33, 138.96 33.6, 140.03 79.21 M141.54 78.08 C93.33 81.1, 46.82 79.17, 1.68 78.86 M140.14 79.23 C90.03 81.1, 37.97 79.69, -0.28 79.36 M1.36 79.61 C-1.63 53.31, -0.21 30.78, 1.24 0.09 M0.26 79.43 C0.43 61.69, 0.52 44.52, -0.06 0.43" stroke="#c92a2a" stroke-width="1" fill="none"></path></g><g transform="translate(244.5 10) rotate(0 55.5 30)"><text x="55.5" y="14" font-family="Virgil, Segoe UI Emoji" font-size="16px" fill="#364fc7" text-anchor="middle" style="white-space: pre;" direction="ltr">Level 7 </text><text x="55.5" y="34" font-family="Virgil, Segoe UI Emoji" font-size="16px" fill="#364fc7" text-anchor="middle" style="white-space: pre;" direction="ltr">Load balancer</text><text x="55.5" y="54" font-family="Virgil, Segoe UI Emoji" font-size="16px" fill="#364fc7" text-anchor="middle" style="white-space: pre;" direction="ltr">(E.g. HAProxy)</text></g><g stroke-linecap="round" transform="translate(430 10) rotate(0 70 40)"><path d="M-1.61 -1.64 L139.47 1.21 L138.29 79.48 L1.13 80.18" stroke="none" stroke-width="0" fill="#ced4da"></path><path d="M-0.35 -0.58 C31.98 -0.17, 66.45 1.48, 139.8 -1.79 M-0.08 0.33 C53.51 0.84, 106.55 0.53, 139.68 0.97 M138.33 -0.06 C138.9 21.14, 139.69 38.56, 141.17 80.27 M140.47 -0.42 C139.05 23.25, 140.81 47.84, 139.78 79.4 M140.25 79.66 C112.41 79.56, 83.04 82.07, -1.23 81.71 M139.41 80.81 C86.62 80.87, 32 80.52, 0.91 80.71 M0.53 80.84 C0.2 61.05, -1.25 41.9, 1.51 1.79 M0.76 80.76 C-0.37 63.11, 0.17 47.65, -0.26 0.33" stroke="#c92a2a" stroke-width="1" fill="none"></path></g><g transform="translate(450 30) rotate(0 50.5 30)"><text x="50.5" y="14" font-family="Virgil, Segoe UI Emoji" font-size="16px" fill="#364fc7" text-anchor="middle" style="white-space: pre;" direction="ltr">Origin Edge</text><text x="50.5" y="34" font-family="Virgil, Segoe UI Emoji" font-size="16px" fill="#364fc7" text-anchor="middle" style="white-space: pre;" direction="ltr">Cache</text><text x="50.5" y="54" font-family="Virgil, Segoe UI Emoji" font-size="16px" fill="#364fc7" text-anchor="middle" style="white-space: pre;" direction="ltr">(E.g. Varnish)</text></g><g stroke-linecap="round" transform="translate(610 10) rotate(0 90 40)"><path d="M-1.52 -0.36 L180.06 1.19 L181.61 78.77 L0.36 79.43" stroke="none" stroke-width="0" fill="#ced4da"></path><path d="M1.31 1.44 C47.11 2.2, 90.78 0.98, 179.44 -1.04 M0.35 0.56 C47.29 -0.31, 96.41 -0.82, 179.24 0.02 M178.91 0.56 C180.53 25.62, 178.76 52.63, 180.05 78.91 M179.2 -0.16 C181 23.99, 180.52 46.41, 179.95 80.6 M178.03 81.64 C123.46 79.25, 63.67 80.45, 1.55 79.46 M180.87 79.33 C139.64 79.68, 101.34 80.81, 0.31 79.91 M-1.59 81.38 C0.63 63.19, -0.03 41.62, 1.41 1.37 M0.8 79.03 C-0.87 55.99, 0.61 30.57, 0.96 0.63" stroke="#c92a2a" stroke-width="1" fill="none"></path></g><g transform="translate(620.5 30) rotate(0 79.5 20)"><text x="79.5" y="14" font-family="Virgil, Segoe UI Emoji" font-size="16px" fill="#364fc7" text-anchor="middle" style="white-space: pre;" direction="ltr">Origin Server/App</text><text x="79.5" y="34" font-family="Virgil, Segoe UI Emoji" font-size="16px" fill="#364fc7" text-anchor="middle" style="white-space: pre;" direction="ltr">(E.g. a Microservice)</text></g><g stroke-linecap="round" transform="translate(830 10) rotate(0 90 40)"><path d="M0.52 0.98 L178.42 1.47 L179.07 80.01 L-1.06 81.52" stroke="none" stroke-width="0" fill="#ced4da"></path><path d="M1.79 1.17 C72.59 1.34, 141.66 -0.16, 181.54 -0.81 M-0.6 -0.9 C62.36 -1.53, 123.78 -1.94, 179.22 0.79 M181.76 1.7 C179.15 24.45, 181.76 44.38, 179.98 80.04 M180.23 0.79 C180.33 18.09, 179.24 35.38, 179.35 79.73 M178.48 80.83 C127.3 77.6, 76.42 79.36, 0.65 79.82 M179.98 80.83 C133.93 79.23, 87.11 78.73, -0.76 80.38 M-1.52 81.02 C0.36 64.57, 0.64 44.76, 0.09 1.75 M-0.1 79.9 C-0.49 51.06, -1.22 23.09, 0.68 0.28" stroke="#c92a2a" stroke-width="1" fill="none"></path></g><g transform="translate(854.5 20) rotate(0 65.5 30)"><text x="65.5" y="14" font-family="Virgil, Segoe UI Emoji" font-size="16px" fill="#364fc7" text-anchor="middle" style="white-space: pre;" direction="ltr">DB Query result</text><text x="65.5" y="34" font-family="Virgil, Segoe UI Emoji" font-size="16px" fill="#364fc7" text-anchor="middle" style="white-space: pre;" direction="ltr">Cache</text><text x="65.5" y="54" font-family="Virgil, Segoe UI Emoji" font-size="16px" fill="#364fc7" text-anchor="middle" style="white-space: pre;" direction="ltr">(E.g. Redis)</text></g><g stroke-linecap="round" transform="translate(1070 10) rotate(0 70 40)"><path d="M20.76 -1.69 L119.36 1.89 L130.67 3.83 L137.29 9.64 L140.07 14.59 L140.09 61.75 L138.23 73.81 L132.72 76.99 L119.8 80.32 L18.43 78.86 L6.62 78.54 L3.37 72.7 L1.29 63.11 L1.79 14.38 L2.82 6.75 L9.33 2.37 L18.37 -1.95" stroke="none" stroke-width="0" fill="#ced4da"></path><path d="M20 0 M20 0 C54.64 0.58, 88.11 -1.71, 120 0 M20 0 C45.92 -0.8, 70.85 -0.57, 120 0 M120 0 C131.53 1.28, 141.21 7.91, 140 20 M120 0 C135.41 -1.66, 138.73 5.69, 140 20 M140 20 C138.18 32.96, 140.65 43.19, 140 60 M140 20 C139.38 35.1, 140.16 49.48, 140 60 M140 60 C138.22 74, 135.3 80.66, 120 80 M140 60 C138.28 75.39, 131.26 81, 120 80 M120 80 C84.78 79.2, 52.2 79.63, 20 80 M120 80 C80.87 80.14, 42.74 80.12, 20 80 M20 80 C6.42 80.11, 0.6 71.89, 0 60 M20 80 C4.76 82.08, 2.03 75.17, 0 60 M0 60 C2.3 47.23, 2.28 35.91, 0 20 M0 60 C-0.87 47.34, -0.08 34.91, 0 20 M0 20 C1.46 8.25, 8 0.95, 20 0 M0 20 C1.64 5.91, 8.82 1.72, 20 0" stroke="#c92a2a" stroke-width="1" fill="none"></path></g><g transform="translate(1100.5 40) rotate(0 39.5 10)"><text x="39.5" y="14" font-family="Virgil, Segoe UI Emoji" font-size="16px" fill="#364fc7" text-anchor="middle" style="white-space: pre;" direction="ltr">Database</text></g><g stroke-linecap="round"><g transform="translate(170 50) rotate(0 30 0)"><path d="M0 0 C10 0, 50 0, 60 0 M0 0 C10 0, 50 0, 60 0" stroke="#c92a2a" stroke-width="1" fill="none"></path></g><g transform="translate(170 50) rotate(0 30 0)"><path d="M31.81 10.26 C42.42 6.4, 53.03 2.54, 60 0 M31.81 10.26 C42.99 6.19, 54.17 2.12, 60 0" stroke="#c92a2a" stroke-width="1" fill="none"></path></g><g transform="translate(170 50) rotate(0 30 0)"><path d="M31.81 -10.26 C42.42 -6.4, 53.03 -2.54, 60 0 M31.81 -10.26 C42.99 -6.19, 54.17 -2.12, 60 0" stroke="#c92a2a" stroke-width="1" fill="none"></path></g></g><g stroke-linecap="round"><g transform="translate(370 50) rotate(0 30 0)"><path d="M0 0 C10 0, 50 0, 60 0 M0 0 C10 0, 50 0, 60 0" stroke="#c92a2a" stroke-width="1" fill="none"></path></g><g transform="translate(370 50) rotate(0 30 0)"><path d="M31.81 10.26 C39.24 7.56, 46.67 4.85, 60 0 M31.81 10.26 C42.86 6.24, 53.91 2.21, 60 0" stroke="#c92a2a" stroke-width="1" fill="none"></path></g><g transform="translate(370 50) rotate(0 30 0)"><path d="M31.81 -10.26 C39.24 -7.56, 46.67 -4.85, 60 0 M31.81 -10.26 C42.86 -6.24, 53.91 -2.21, 60 0" stroke="#c92a2a" stroke-width="1" fill="none"></path></g></g><g stroke-linecap="round"><g transform="translate(570 50) rotate(0 20 0)"><path d="M0 0 C6.67 0, 33.33 0, 40 0 M0 0 C6.67 0, 33.33 0, 40 0" stroke="#c92a2a" stroke-width="1" fill="none"></path></g><g transform="translate(570 50) rotate(0 20 0)"><path d="M21.21 6.84 C28.16 4.31, 35.11 1.78, 40 0 M21.21 6.84 C28.02 4.36, 34.83 1.88, 40 0" stroke="#c92a2a" stroke-width="1" fill="none"></path></g><g transform="translate(570 50) rotate(0 20 0)"><path d="M21.21 -6.84 C28.16 -4.31, 35.11 -1.78, 40 0 M21.21 -6.84 C28.02 -4.36, 34.83 -1.88, 40 0" stroke="#c92a2a" stroke-width="1" fill="none"></path></g></g><g stroke-linecap="round"><g transform="translate(790 50) rotate(0 20 0)"><path d="M0 0 C6.67 0, 33.33 0, 40 0 M0 0 C6.67 0, 33.33 0, 40 0" stroke="#c92a2a" stroke-width="1" fill="none"></path></g><g transform="translate(790 50) rotate(0 20 0)"><path d="M21.21 6.84 C28.06 4.35, 34.91 1.85, 40 0 M21.21 6.84 C26.83 4.79, 32.45 2.75, 40 0" stroke="#c92a2a" stroke-width="1" fill="none"></path></g><g transform="translate(790 50) rotate(0 20 0)"><path d="M21.21 -6.84 C28.06 -4.35, 34.91 -1.85, 40 0 M21.21 -6.84 C26.83 -4.79, 32.45 -2.75, 40 0" stroke="#c92a2a" stroke-width="1" fill="none"></path></g></g><g stroke-linecap="round"><g transform="translate(1010 50) rotate(0 30 0)"><path d="M0 0 C10 0, 50 0, 60 0 M0 0 C10 0, 50 0, 60 0" stroke="#c92a2a" stroke-width="1" fill="none"></path></g><g transform="translate(1010 50) rotate(0 30 0)"><path d="M31.81 10.26 C42.69 6.3, 53.58 2.34, 60 0 M31.81 10.26 C40.57 7.07, 49.32 3.89, 60 0" stroke="#c92a2a" stroke-width="1" fill="none"></path></g><g transform="translate(1010 50) rotate(0 30 0)"><path d="M31.81 -10.26 C42.69 -6.3, 53.58 -2.34, 60 0 M31.81 -10.26 C40.57 -7.07, 49.32 -3.89, 60 0" stroke="#c92a2a" stroke-width="1" fill="none"></path></g></g></svg>